<?xml version="1.0" encoding="iso-8859-1"?>
<!-- Generator: Adobe Illustrator 22.1.0, SVG Export Plug-In . SVG Version: 6.00 Build 0)  -->
<svg version="1.1" id="Layer_1" xmlns="http://www.w3.org/2000/svg" xmlns:xlink="http://www.w3.org/1999/xlink" x="0px" y="0px"
	 viewBox="0 0 220 75" style="enable-background:new 0 0 220 75;" xml:space="preserve">
<g>
	<path style="fill:#22283E;" d="M78.864,35.228h7.312v4.85c2.095-3.446,5.846-5.537,9.878-5.506c7.133,0,11.266,4.79,11.266,12.102
		v20.19h-7.252V48.957c0-4.924-2.462-7.73-6.775-7.73c-4.313,0-7.133,2.984-7.133,7.849v17.907h-7.297V35.228"/>
	<path style="fill:#22283E;" d="M109.35,51.165v-0.119c0-9.058,6.417-16.414,15.459-16.414c10.072,0,15.161,7.909,15.161,17.011
		c0,0.657,0,1.313-0.119,2.044h-23.249c0.425,4.667,4.419,8.19,9.103,8.028c3.262,0.014,6.375-1.358,8.565-3.775l4.283,3.716
		c-3.141,3.904-7.929,6.113-12.938,5.969c-8.716,0.254-15.987-6.605-16.241-15.321c-0.011-0.365-0.009-0.729,0.006-1.094
		 M132.777,48.793c-0.478-4.671-3.238-8.327-8.028-8.327c-4.477,0-7.551,3.417-8.207,8.327H132.777z"/>
	<polyline style="fill:#22283E;" points="137.955,35.243 145.446,35.243 151.803,56.925 158.817,35.124 165.039,35.124 
		172.053,56.925 178.529,35.243 185.841,35.243 175.47,67.117 168.934,67.117 161.861,45.48 154.743,67.117 148.267,67.117 
		137.955,35.243 	"/>
	<path style="fill:#22283E;" d="M183.901,62.73l3.238-4.909c2.958,2.362,6.589,3.725,10.371,3.895c3.119,0,4.909-1.313,4.909-3.417
		v-0.119c0-2.462-3.357-3.298-7.073-4.477c-4.671-1.313-9.893-3.238-9.893-9.222v-0.119c0-6.043,4.969-9.714,11.266-9.714
		c4.147,0.11,8.177,1.393,11.624,3.701l-2.88,5.148c-2.673-1.758-5.76-2.787-8.953-2.984c-2.82,0-4.477,1.373-4.477,3.119v0.119
		c0,2.343,3.417,3.298,7.133,4.477c4.611,1.492,9.834,3.537,9.834,9.222v0.119c0,6.655-5.163,9.953-11.744,9.953
		c-4.88-0.032-9.608-1.697-13.43-4.73"/>
	<polyline style="fill:#A72122;" points="28.844,45.957 59.166,45.957 57.167,42.495 26.845,42.495 28.844,45.957 	"/>
	<polyline style="fill:#A72122;" points="32.635,52.493 62.971,52.493 60.972,49.046 30.65,49.046 32.635,52.493 	"/>
	<polyline style="fill:#A72122;" points="36.455,59.029 66.777,59.029 64.777,55.582 34.44,55.582 36.455,59.029 	"/>
	<polyline style="fill:#A72122;" points="40.111,65.341 70.448,65.341 68.448,61.879 38.111,61.879 40.111,65.341 	"/>
	<polyline style="fill:#22283E;" points="40.111,65.341 38.111,61.894 36.112,65.341 40.111,65.341 	"/>
	<polyline style="fill:#22283E;" points="32.784,65.341 36.44,59.014 34.455,55.582 28.785,65.341 32.784,65.341 	"/>
	<polyline style="fill:#22283E;" points="25.174,65.341 32.635,52.478 30.65,49.046 21.189,65.341 25.174,65.341 	"/>
	<polyline style="fill:#22283E;" points="17.578,65.341 28.844,45.928 26.845,42.495 13.594,65.341 17.578,65.341 	"/>
	<polyline style="fill:#22283E;" points="38.216,9.846 5.984,65.341 9.968,65.341 40.215,13.278 38.216,9.846 	"/>
	<polyline style="fill:#22283E;" points="48.094,38.959 51.601,32.9 49.616,29.468 44.11,38.959 48.094,38.959 	"/>
	<polyline style="fill:#22283E;" points="40.499,38.959 47.811,26.365 45.811,22.932 36.5,38.959 40.499,38.959 	"/>
	<polyline style="fill:#22283E;" points="32.903,38.959 44.005,19.814 42.021,16.382 28.919,38.959 32.903,38.959 	"/>
	<path style="fill:#A72122;" d="M98.262,20.023c0,0.995,0,1.87,0,2.626c0,0.761,0,1.492,0,2.238s0,1.492,0.104,2.253
		c0.104,0.761,0.104,1.641,0.179,2.611h-6.819l-0.358-2.984c-0.598,1.105-1.499,2.016-2.596,2.626
		c-0.988,0.525-2.089,0.802-3.208,0.806c-0.886-0.001-1.762-0.195-2.567-0.567c-0.848-0.405-1.593-0.997-2.179-1.731
		c-0.669-0.822-1.176-1.764-1.492-2.776c-0.397-1.254-0.589-2.564-0.567-3.88c-0.019-1.444,0.276-2.875,0.865-4.193
		c0.557-1.238,1.353-2.353,2.343-3.283c0.996-0.926,2.161-1.651,3.432-2.134c1.308-0.508,2.7-0.766,4.104-0.761
		c0.997-0.013,1.995,0.042,2.984,0.164c0.737,0.091,1.465,0.241,2.179,0.448l4.133-1.045c-0.099,0.895-0.179,1.721-0.239,2.477
		c-0.06,0.756-0.109,1.507-0.149,2.253c0,0.731,0,1.492,0,2.268c0,0.776,0,1.627,0,2.537 M86.146,19.545
		c-0.124,1.398,0.172,2.801,0.851,4.029c0.479,0.728,1.292,1.166,2.164,1.164c0.424,0,0.843-0.097,1.224-0.284
		c0.43-0.224,0.787-0.565,1.03-0.985c0-0.582,0.075-1.179,0.09-1.776c0.015-0.597,0-1.268,0-2c0-1.99-0.035-3.452-0.104-4.387
		c-0.268-0.12-0.548-0.21-0.836-0.269c-0.369-0.067-0.744-0.097-1.119-0.09c-0.901-0.007-1.756,0.394-2.328,1.089
		c-0.773,1.015-1.144,2.28-1.045,3.551L86.146,19.545z"/>
	<path style="fill:#A72122;" d="M115.125,16.173c-0.724-0.312-1.487-0.523-2.268-0.627c-0.836-0.113-1.678-0.167-2.522-0.164
		c-0.684-0.058-1.373,0.039-2.014,0.284c-0.276,0.123-0.465,0.385-0.492,0.686c0.006,0.275,0.152,0.529,0.388,0.671
		c0.564,0.303,1.166,0.529,1.791,0.671l1.925,0.552c1.402,0.34,2.68,1.069,3.686,2.104c0.851,1.051,1.282,2.38,1.209,3.731
		c0.015,0.884-0.196,1.757-0.612,2.537c-0.415,0.757-0.997,1.41-1.701,1.91c-0.78,0.543-1.649,0.947-2.567,1.194
		c-1.055,0.29-2.145,0.43-3.238,0.418c-1.499,0.018-2.998-0.097-4.477-0.343c-1.192-0.222-2.354-0.583-3.462-1.074l1.164-4.283
		c0.865,0.433,1.783,0.749,2.731,0.94c0.98,0.215,1.981,0.325,2.984,0.328c0.732,0.042,1.465-0.049,2.164-0.269
		c0.435-0.126,0.686-0.581,0.56-1.017c-0.058-0.199-0.188-0.369-0.366-0.476c-0.63-0.345-1.302-0.606-2-0.776l-1.925-0.582
		c-1.297-0.327-2.483-0.997-3.432-1.94c-0.872-1.023-1.311-2.345-1.224-3.686c-0.003-0.817,0.197-1.622,0.582-2.343
		c0.376-0.757,0.916-1.42,1.582-1.94c0.791-0.58,1.674-1.024,2.611-1.313c1.092-0.339,2.229-0.505,3.372-0.492
		c1.248-0.007,2.494,0.073,3.731,0.239c1.014,0.142,2.013,0.377,2.984,0.701l-1.239,4.357"/>
	<path style="fill:#A72122;" d="M125.854,20.828c0,0.865,0,1.656,0,2.373c0,0.716,0,1.418,0,2.104c0,0.686,0,1.388,0.104,2.104
		c0.104,0.716,0.104,1.492,0.149,2.343h-7.461c0-0.851,0.09-1.627,0.149-2.343c0.06-0.716,0.09-1.418,0.104-2.104
		c0.015-0.686,0-1.388,0-2.104c0-0.716,0-1.492,0-2.373s0-1.761,0-2.522c0-0.761,0-1.492,0-2.223c0-0.731,0-1.492-0.09-2.238
		c-0.09-0.746-0.09-1.597-0.164-2.522h7.461c-0.075,0.925-0.119,1.761-0.164,2.522c-0.045,0.761,0,1.492-0.09,2.238
		c-0.09,0.746,0,1.492,0,2.223C125.854,19.038,125.854,19.903,125.854,20.828"/>
	<path style="fill:#A72122;" d="M148.088,20.023c0,0.995,0,1.87,0,2.626c0,0.756,0,1.502,0,2.238c0,0.731,0,1.492,0.104,2.253
		c0.104,0.761,0.104,1.641,0.179,2.611h-6.834l-0.358-2.984c-0.604,1.11-1.516,2.022-2.626,2.626
		c-0.988,0.526-2.089,0.802-3.208,0.806c-0.891,0.001-1.772-0.193-2.582-0.567c-0.853-0.403-1.603-0.995-2.194-1.731
		c-0.67-0.822-1.176-1.764-1.492-2.776c-0.399-1.254-0.59-2.564-0.567-3.88c-0.019-1.444,0.276-2.875,0.865-4.193
		c0.557-1.238,1.353-2.353,2.343-3.283c0.994-0.928,2.16-1.653,3.432-2.134c1.308-0.508,2.7-0.767,4.104-0.761
		c0.997-0.013,1.994,0.042,2.984,0.164c0.737,0.091,1.465,0.241,2.179,0.448l4.133-1.045c-0.099,0.895-0.179,1.721-0.239,2.477
		c-0.06,0.756-0.109,1.507-0.149,2.253c0,0.736,0,1.492,0,2.268c0,0.776,0,1.622,0,2.537 M135.911,19.545
		c-0.122,1.398,0.174,2.8,0.851,4.029c0.479,0.728,1.292,1.166,2.164,1.164c0.419-0.001,0.833-0.098,1.209-0.284
		c0.429-0.225,0.786-0.566,1.03-0.985c0-0.582,0.075-1.179,0.09-1.776c0.015-0.597,0-1.268,0-2c0-1.99-0.035-3.452-0.104-4.387
		c-0.268-0.12-0.548-0.211-0.836-0.269c-0.369-0.067-0.744-0.097-1.119-0.09c-0.895-0.002-1.744,0.398-2.313,1.089
		c-0.775,1.014-1.147,2.279-1.045,3.551L135.911,19.545z"/>
	<path style="fill:#A72122;" d="M158.891,14.263c0.61-1.047,1.479-1.92,2.522-2.537c1.002-0.563,2.134-0.851,3.283-0.836
		c0.788-0.006,1.568,0.162,2.283,0.492c0.688,0.319,1.302,0.776,1.806,1.343c0.522,0.595,0.927,1.284,1.194,2.029
		c0.297,0.833,0.444,1.712,0.433,2.596c0,0.577,0,1.109,0,1.597c0,0.478,0,0.97,0,1.492c0,0.522,0,0.985,0,1.492s0,1.089,0,1.686
		v1.597c0,0.478,0,0.955,0,1.492s0,0.955,0,1.492c0,0.537,0.075,1.045,0.119,1.656h-7.461c0-0.582,0.09-1.104,0.134-1.492
		c0.045-0.388,0-0.925,0-1.373c0-0.448,0-0.925,0-1.418c0-0.492,0-1.015,0-1.597v-2.94c-0.002-0.763-0.051-1.526-0.149-2.283
		c-0.046-0.682-0.289-1.335-0.701-1.88c-0.298-0.362-0.74-0.575-1.209-0.582c-0.411-0.014-0.819,0.084-1.179,0.284
		c-0.391,0.261-0.718,0.608-0.955,1.015c-0.07,0.746-0.119,1.582-0.149,2.507c0,0.925,0,1.895,0,2.91v1.791c0,0.547,0,1.074,0,1.582
		c0,0.507,0,1.03,0,1.582c0,0.552,0,1.134,0.09,1.791h-7.461c0-0.846,0.05-1.627,0.149-2.343c0-0.716,0.075-1.418,0.104-2.104
		c0.03-0.686,0-1.388,0-2.104c0-0.716,0-1.492,0-2.373s0-1.761,0-2.522c0-0.761,0-1.492,0-2.223c0-0.731,0-1.492-0.09-2.238
		c-0.09-0.746-0.09-1.597-0.164-2.522h7.103l0.328,2.984"/>
	<path style="fill:#A72122;" d="M179.603,21.933c0.118,0.964,0.618,1.84,1.388,2.432c1.012,0.601,2.184,0.877,3.357,0.791
		c1.197,0.015,2.391-0.126,3.551-0.418c1.023-0.285,1.994-0.728,2.88-1.313l1.015,4.357c-1.184,0.822-2.502,1.433-3.895,1.806
		c-1.582,0.387-3.207,0.567-4.835,0.537c-1.437,0.017-2.867-0.194-4.238-0.627c-1.216-0.388-2.338-1.023-3.298-1.865
		c-0.922-0.826-1.651-1.845-2.134-2.984c-0.529-1.307-0.788-2.708-0.761-4.119c-0.01-1.317,0.249-2.622,0.761-3.835
		c0.493-1.13,1.215-2.146,2.119-2.984c0.94-0.869,2.04-1.548,3.238-2c1.311-0.495,2.702-0.743,4.104-0.731
		c1.25-0.017,2.494,0.19,3.671,0.612c1.034,0.379,1.975,0.974,2.761,1.746c0.823,0.854,1.458,1.871,1.865,2.984
		c0.466,1.302,0.693,2.677,0.671,4.059v0.671c0,0.224,0,0.507,0,0.821h-12.266 M182.319,14.83c-0.778-0.055-1.531,0.287-2,0.91
		c-0.459,0.678-0.732,1.466-0.791,2.283h5.476c-0.026-0.835-0.296-1.644-0.776-2.328c-0.448-0.57-1.141-0.892-1.865-0.865H182.319z"
		/>
	<path style="fill:#A72122;" d="M202.091,16.098v1.835c0,0.642,0,1.253,0,1.835v1.627c0.005,0.424,0.035,0.848,0.09,1.268
		c-0.018,0.696,0.258,1.368,0.761,1.85c0.444,0.382,1.011,0.589,1.597,0.582c0.503,0.005,1.005-0.055,1.492-0.179
		c0.481-0.134,0.939-0.341,1.358-0.612l0.91,3.85c-0.874,0.709-1.893,1.218-2.984,1.492c-1.291,0.367-2.627,0.548-3.969,0.537
		c-0.865,0.01-1.724-0.137-2.537-0.433c-0.751-0.272-1.434-0.705-2-1.268c-0.567-0.574-1.01-1.26-1.298-2.014
		c-0.331-0.861-0.493-1.778-0.478-2.701c0-0.676,0-1.313,0-1.91c0-0.597,0-1.179,0-1.761c0-0.582,0-1.179,0-1.821
		c0-0.642,0-1.343,0-2.134h-2.641v-4.82h2.641V9.01c0-0.667,0-1.408,0-2.223h7.252c-0.09,1,0,0.657-0.149,1.656
		s-0.104,1.97-0.104,2.88h5.118v4.79h-5.297"/>
</g>
</svg>
